<?xml version="1.0" standalone="no"?><!DOCTYPE svg PUBLIC "-//W3C//DTD SVG 1.1//EN" "http://www.w3.org/Graphics/SVG/1.1/DTD/svg11.dtd"><svg t="1690187864937" class="icon" viewBox="0 0 1024 1024" version="1.1" xmlns="http://www.w3.org/2000/svg" p-id="7208" xmlns:xlink="http://www.w3.org/1999/xlink" width="200" height="200"><path d="M926 296.2c-0.9-29.4-23.8-53.2-53.2-53.2H721.1l5.2 32.4c2.6 16.2-9.9 30.8-26.3 30.8 0 0-238 5-373.8 0-16.4-0.6-28.9-14.7-26.3-30.8l5.2-32.4H153.9c-29.4 0-52.4 23.8-53.2 53.2-5 171.4 0 494.1 0 494.1 0 29.4 23.8 52.4 53.2 53.2 181.2 5.3 718.8 0 718.8 0 29.4 0 53.2-23.8 53.2-53.2 0.1 0 4.4-358.2 0.1-494.1z" fill="#FE506B" p-id="7209"></path><path d="M713.6 195.8c-2.1-12.9-13.2-22.1-26.3-22.4-150.7-4-348.2 0-348.2 0-13.1 0-24.2 9.5-26.3 22.4l-7.6 47.1h415.9l-7.5-47.1z" fill="#00A9DC" p-id="7210"></path><path d="M326.3 306.2c135.8 5 373.8 0 373.8 0 16.4 0 28.9-14.7 26.3-30.8l-5.2-32.4h-416l-5.2 32.4c-2.6 16.1 9.9 30.2 26.3 30.8zM735.9 577.9c0.9 134-90.1 220.4-222.5 218.2-133.2-2.1-225-97.3-223-219.9 2.2-133.3 99.4-223.1 222-222 133.3 1.1 222.7 92.2 223.5 223.7z" fill="#8F3694" p-id="7211"></path><path d="M650.2 576.8c0.5 82.4-55.4 135.5-136.9 134.2-81.9-1.3-138.4-59.8-137.1-135.2 1.3-82 61.1-137.2 136.6-136.6 81.9 0.8 136.9 56.8 137.4 137.6z" fill="#FFBA3B" p-id="7212"></path></svg>