<?xml version="1.0" standalone="no"?><!DOCTYPE svg PUBLIC "-//W3C//DTD SVG 1.1//EN" "http://www.w3.org/Graphics/SVG/1.1/DTD/svg11.dtd"><svg t="1690187807175" class="icon" viewBox="0 0 1024 1024" version="1.1" xmlns="http://www.w3.org/2000/svg" p-id="4610" xmlns:xlink="http://www.w3.org/1999/xlink" width="200" height="200"><path d="M106.04 718.454h820.322v134.398c0 57.546-46.65 104.198-104.198 104.198H195.084c-49.178 0-89.042-39.866-89.042-89.042v-149.554z" fill="#F9E6FF" p-id="4611"></path><path d="M240.5 38.76l-0.002 641.906h-9.208v105.108H196.52c-44.048 0-79.758 35.71-79.758 79.76 0 44.048 35.71 79.756 79.76 79.756h624.84c57.488 0 104.092-46.604 104.092-104.092v-156.836l15.832 0.002v175.862c0 67.634-54.828 122.46-122.46 122.46h-614.54c-67.632 0-122.46-54.826-122.46-122.46V161.22c0-67.634 54.828-122.46 122.46-122.46h36.212z" fill="#407DFF" p-id="4612"></path><path d="M849.17 904.008a6.63 6.63 0 0 1 0.376 13.252l-0.376 0.01H212.616a6.63 6.63 0 0 1-0.376-13.25l0.376-0.012h636.554zM849.17 864.224a6.63 6.63 0 0 1 0.376 13.252l-0.376 0.01H212.616a6.63 6.63 0 0 1-0.376-13.252l0.376-0.01h636.554zM849.17 824.44a6.63 6.63 0 0 1 0.376 13.25l-0.376 0.012H212.616a6.63 6.63 0 0 1-0.376-13.252l0.376-0.01h636.554z" fill="#5F92FF" p-id="4613"></path><path d="M231.29 38.76h605.904c57.488 0 104.092 46.602 104.092 104.09v538.832c0 57.488-46.604 104.092-104.092 104.092H231.29" fill="#6999FF" p-id="4614"></path><path d="M229.492 39.236h-17.05v747.016h17.05z" fill="#0001DB" opacity=".2" p-id="4615"></path><path d="M235.618 39.236h28.418v747.016h-28.42z" fill="#FFF7C0" opacity=".23" p-id="4616"></path><path d="M647.626 438.46l6.778 1.374c17.78 3.672 48.254 10.872 59.9 26.93 17.36 23.944-0.674 39.28-8.4 42.698-20.19 8.926-39.28-0.508-66.972-17.156l-2.984-1.8 1.228 5.322c6.936 30.512 9.59 51.114-4.834 67.268-5.63 6.306-25.76 18.754-43.124-5.19-12.98-17.898-8.284-54.68-6.408-71.046 2.12-18.506 6.766-34.556 13.94-48.148l0.73-1.358 0.16-0.03c15.1-2.814 31.76-2.434 49.986 1.136z m-105.376-1.08l0.324 0.06 0.08 0.146c7.334 13.518 12.124 29.512 14.366 47.98l0.79 6.884c2.008 18.076 4.592 49.34-7.054 65.4-17.36 23.944-37.494 11.496-43.124 5.19-14.566-16.314-11.714-37.164-4.626-68.176l1.004-4.34-3.024 1.822c-27.706 16.66-46.802 26.102-66.998 17.172l-0.474-0.22c-7.96-3.812-24.94-19.012-7.924-42.478 12.978-17.896 49.344-24.79 65.46-28.06 18.7-3.796 35.766-4.256 51.2-1.38z m-80.764-154.626c21 6.836 38.78 39.36 46.864 53.704 9.38 16.648 15.092 32.768 17.132 48.364l0.042 0.326-0.114 0.12c-10.564 11.168-24.266 20.674-41.104 28.518l-6.202 2.84c-16.524 7.496-45.47 19.674-64.346 13.528-27.812-9.054-22.608-31.716-18.38-39.264l0.126-0.224c11.096-19.112 32.076-22.72 64.248-25.562l3.468-0.3-2.664-2.316c-24.374-21.254-39.24-36.532-37.004-58.536 0.856-8.418 9.84-30.344 37.934-21.198z m254.83 21.22c2.212 21.77-12.316 36.956-36.232 57.86l-3.38 2.94 3.514 0.306c32.188 2.84 53.178 6.446 64.278 25.564l0.256 0.458c4.2 7.77 9.02 30.068-18.51 39.032-21 6.836-54.464-9.006-69.42-15.85-17.356-7.94-31.434-17.62-42.232-29.036l-0.226-0.24 0.02-0.164c1.996-15.256 7.504-31.016 16.526-47.28l3.36-5.962c8.97-15.798 25.24-42.682 44.112-48.826 28.092-9.146 37.078 12.78 37.934 21.198zM647.3 260.08c0 22.122-25.38 49.116-36.496 61.252-12.572 13.722-25.746 23.97-39.524 30.742l-1.386 0.67-0.15-0.072c-13.866-6.616-27.122-16.734-39.772-30.356l-4.594-5.01c-12.22-13.426-32.744-37.26-32.744-57.156 0-29.596 23.59-31.382 31.844-29.596 21.57 4.668 31.48 23.544 44.116 53.32l1.358 3.214 1.374-3.256c12.644-29.794 22.552-48.68 44.13-53.348l0.512-0.102c8.676-1.6 31.332 0.694 31.332 29.698z" fill="#3364F8" p-id="4617"></path><path d="M641.626 428.46l6.778 1.374c17.78 3.672 48.254 10.872 59.9 26.93 17.36 23.944-0.674 39.28-8.4 42.698-20.19 8.926-39.28-0.508-66.972-17.156l-2.984-1.8 1.228 5.322c6.936 30.512 9.59 51.114-4.834 67.268-5.63 6.306-25.76 18.754-43.124-5.19-12.98-17.898-8.284-54.68-6.408-71.046 2.12-18.506 6.766-34.556 13.94-48.148l0.73-1.358 0.16-0.03c15.1-2.814 31.76-2.434 49.986 1.136z m-105.376-1.08l0.324 0.06 0.08 0.146c7.334 13.518 12.124 29.512 14.366 47.98l0.79 6.884c2.008 18.076 4.592 49.34-7.054 65.4-17.36 23.944-37.494 11.496-43.124 5.19-14.566-16.314-11.714-37.164-4.626-68.176l1.004-4.34-3.024 1.822c-27.706 16.66-46.802 26.102-66.998 17.172l-0.474-0.22c-7.96-3.812-24.94-19.012-7.924-42.478 12.978-17.896 49.344-24.79 65.46-28.06 18.7-3.796 35.766-4.256 51.2-1.38z m-80.764-154.626c21 6.836 38.78 39.36 46.864 53.704 9.38 16.648 15.092 32.768 17.132 48.364l0.042 0.326-0.114 0.12c-10.564 11.168-24.266 20.674-41.104 28.518l-6.202 2.84c-16.524 7.496-45.47 19.674-64.346 13.528-27.812-9.054-22.608-31.716-18.38-39.264l0.126-0.224c11.096-19.112 32.076-22.72 64.248-25.562l3.468-0.3-2.664-2.316c-24.374-21.254-39.24-36.532-37.004-58.536 0.856-8.418 9.84-30.344 37.934-21.198z m254.83 21.22c2.212 21.77-12.316 36.956-36.232 57.86l-3.38 2.94 3.514 0.306c32.188 2.84 53.178 6.446 64.278 25.564l0.256 0.458c4.2 7.77 9.02 30.068-18.51 39.032-21 6.836-54.464-9.006-69.42-15.85-17.356-7.94-31.434-17.62-42.232-29.036l-0.226-0.24 0.02-0.164c1.996-15.256 7.504-31.016 16.526-47.28l3.36-5.962c8.97-15.798 25.24-42.682 44.112-48.826 28.092-9.146 37.078 12.78 37.934 21.198zM641.3 250.08c0 22.122-25.38 49.116-36.496 61.252-12.572 13.722-25.746 23.97-39.524 30.742l-1.386 0.67-0.15-0.072c-13.866-6.616-27.122-16.734-39.772-30.356l-4.594-5.01c-12.22-13.426-32.744-37.26-32.744-57.156 0-29.596 23.59-31.382 31.844-29.596 21.57 4.668 31.48 23.544 44.116 53.32l1.358 3.214 1.374-3.256c12.644-29.794 22.552-48.68 44.13-53.348l0.512-0.102c8.676-1.6 31.332 0.694 31.332 29.698z" fill="#F9E6FF" p-id="4618"></path></svg>