<?xml version="1.0" standalone="no"?><!DOCTYPE svg PUBLIC "-//W3C//DTD SVG 1.1//EN" "http://www.w3.org/Graphics/SVG/1.1/DTD/svg11.dtd"><svg t="1690025643317" class="icon" viewBox="0 0 1024 1024" version="1.1" xmlns="http://www.w3.org/2000/svg" p-id="15626" xmlns:xlink="http://www.w3.org/1999/xlink" width="200" height="200"><path d="M325.01333375 32l149.76 174.55999969h-169.65333375L155.36 32h169.65333375z m440.61333281 0l149.73333375 174.55999969h-169.62666656L595.97333375 32h169.65333281z m-220.26666656 0l149.76 174.55999969h-169.65333375L375.73333344 32h169.65333281z m433.92 0C1016.66666656 32 1045.33333344 60.37333344 1045.22666656 97.44000031v109.11999938h-79.25333344L816.21333312 32zM104.77333344 32l149.86666687 174.55999969H32.10666688V97.44000031C32.10666688 60.37333344 60.8 32 98.18666656 32h6.58666688z" fill="#9299EA" p-id="15627"></path><path d="M32 926.55999969C32 963.62666656 60.66666688 992 98.05333344 992h881.22666656C1016.66666656 992 1045.33333344 963.62666656 1045.33333344 926.55999969V250.16H32v676.39999969z" fill="#2C3167" p-id="15628"></path><path d="M384.48000031 446.55999969c0-37.06666688 30.82666687-54.50666625 66.05333344-54.50666625 11.04 0 24.24 2.13333375 35.25333281 8.66666625l251.20000031 144.05333344a61.60000031 61.60000031 0 0 1 0 109.12000031l-251.20000031 143.94666656c-11.01333375 6.53333344-22.05333375 8.66666625-35.25333281 8.66666625-35.22666656 0-66.05333344-17.46666656-66.05333344-54.50666625V446.55999969z" fill="#FFFFFF" p-id="15629"></path></svg>