<?xml version="1.0" standalone="no"?><!DOCTYPE svg PUBLIC "-//W3C//DTD SVG 1.1//EN" "http://www.w3.org/Graphics/SVG/1.1/DTD/svg11.dtd"><svg t="1690212861421" class="icon" viewBox="0 0 1024 1024" version="1.1" xmlns="http://www.w3.org/2000/svg" p-id="58201" xmlns:xlink="http://www.w3.org/1999/xlink" width="200" height="200"><path d="M767.232 384l-62.976 0L704.256 286.464c0-122.24-100.736-221.76-224.64-221.76-123.904 0-224.64 99.52-224.64 221.76L254.976 384 191.232 384c-70.656 0-128 57.344-128 128l0 320c0 70.656 57.344 128 128 128l576 0c70.72 0 128-57.344 128-128L895.232 512C895.232 441.344 838.016 384 767.232 384zM319.104 286.464c0-87.296 72-158.4 160.448-158.4C568.128 128.064 640 199.104 640 286.464L640 384 319.104 384 319.104 286.464zM831.232 832c0 35.392-28.608 64-64 64l-576 0c-35.328 0-64-28.608-64-64L127.232 512c0-35.392 28.672-64 64-64l576 0c35.392 0 64 28.608 64 64L831.232 832zM479.232 512c-53.056 0-96 43.008-96 96 0 41.728 26.816 76.864 64 90.112L447.232 800c0 17.664 14.336 32 32 32s32-14.336 32-32l0-101.888c37.184-13.248 64-48.384 64-90.112C575.232 555.008 532.288 512 479.232 512z" p-id="58202" fill="#dbdbdb"></path></svg>